<svg version="1.2" xmlns="http://www.w3.org/2000/svg" viewBox="0 0 1080 1080" width="1080" height="1080">
	<title>New Project</title>
	<defs>
		<linearGradient id="g1" x1="540" y1="639" x2="540" y2="440" gradientUnits="userSpaceOnUse">
			<stop offset="0" stop-color="#0058aa"/>
			<stop offset="1" stop-color="#2e9bff"/>
		</linearGradient>
	</defs>
	<style>
		.s0 { fill: url(#g1) } 
	</style>
	<g id="Background">
		<g id="Folder 1">
			<path id="Path 2" class="s0" d="m138.7 443.6c-2.4 2.3-2.8 18.8-2.7 95.5 0.1 50.9 0.9 93.9 1.7 95.4 1.2 2.2 19.9 2.8 92.8 3.3 81.7 0.6 91.7 0.3 95.6-2.7 2.4-1.8 8.9-9.4 14.4-16.8 5.5-7.5 12.4-16.1 15.3-19.2 3.6-3.7 4.9-6.7 3.8-8.8-1.3-2.7-11.6-3.2-79.3-3.2-66.4 0-78.2-0.4-80.9-3.1-2.2-2.2-2.8-5.7-2-11.9 0.6-4.8 2.2-9.5 3.6-10.3 1.4-0.9 28.5-1.6 60.1-1.6h57.6c22.5-29 29.5-38.8 30.1-40.5 0.9-2.7-8-3.1-71.6-3.1-44.3 0-74.2-0.8-76.8-2.1-2.3-1.1-4.1-4.1-4.1-6.7 0-2.6 1.2-7 2.7-9.9l2.6-5.1 124.1-2.1c20.4-25.7 28.2-36 30.4-39.4 2.2-3.4 4.1-6.9 4.1-7.8 0-0.9-49.2-1.8-109.3-2.1-88.3-0.4-109.8 0-112.2 2.2zm585.1-0.1c-2 2.2-6.2 7.1-9.3 11-3 3.9-9.8 12.7-15 19.6-5.3 6.8-9.6 13.1-9.6 14 0.1 0.9 1.5 2 3.2 2.6 1.7 0.6 41.4 1 88.1 1 71.5 0 86.1 0.5 91.3 3.1 3.4 1.7 7.6 5.9 9.3 9.4 1.8 3.4 3.2 7.6 3.2 9.3 0 1.7-1.3 5.7-2.9 8.8-1.5 3.2-6.2 7.4-10.3 9.4-6.9 3.2-16 3.6-95.7 3.6-76.6 0-88.3 0.4-89.2 3.1-0.6 1.7-1.1 23.6-1.1 48.7 0 34.4 0.7 46 2.6 47 1.4 0.8 13.8 1.6 27.5 1.8 13.7 0.2 26.5-0.4 28.5-1.4 3.2-1.5 3.6-4.5 3.1-23.4-0.3-12.5 0.4-22.6 1.6-23.7 1.2-1.2 29.1-2.4 68.4-2.9 57.1-0.7 67.7-1.3 75.8-4.5 5.1-2 12.8-5.4 17.1-7.6 4.2-2.1 11.1-7 15.3-10.7 4.1-3.7 9.9-11.4 12.9-17.1 4.7-9.1 5.4-12.9 5.4-31.1 0.1-17.8-0.6-22.1-4.8-30.1-2.6-5.1-7.3-11.9-10.3-15.1-3.1-3.2-9.3-8.3-13.8-11.4-4.5-3.1-14.3-7.9-21.8-10.6-13.2-5-15.2-5.1-89.6-5.9-72.6-0.8-76.2-0.7-79.9 3.1zm-302.9 7.3c-3.4 4.8-7.5 10.2-9.1 11.9-1.6 1.7-6.4 7.5-10.7 13-4.2 5.4-7.7 11.2-7.7 12.9 0 1.7 1.1 3.2 2.5 3.2 1.5 0.1 40 0 85.6 0 68.8-0.1 84.7 0.4 92.8 3 6.6 2.1 11.3 5.2 14 9.4 2.3 3.4 4.2 8.5 4.2 11.4 0 2.8-2.2 7.7-4.9 10.9-2.8 3.3-8.8 6.7-14.5 8.3-7 1.8-33.4 2.6-95.7 2.6-55.4 0-86.5 0.7-87.2 2-0.5 1.2-1 23.3-1 49.3 0 26 0.6 47.7 1.2 48.2 0.7 0.6 12.1 1.4 25.4 1.8 15.4 0.5 25.9 0 28.9-1.5 4.4-2.2 4.7-3.6 4.7-24.1 0-12 0.4-23.2 1-24.9 0.9-2.7 7.7-3.1 45.1-3.1 38.6 0.1 44.6 0.5 48.2 3.7 2.3 1.9 11.6 12.4 20.6 23.2 9 10.9 17.4 20.9 18.7 22.4 1.6 1.9 12.9 2.9 40.1 3.6l37.8 1c0.1-7.9-8-17.4-25.8-35.3-14.3-14.2-26-26.8-26-28-0.1-1.1 4.7-4.4 10.6-7.2 5.9-2.9 14.5-9.5 19.2-14.8 4.7-5.2 10.2-14.1 12.1-19.7 2-5.6 3.7-15.7 3.7-22.6 0-6.8-1.3-16.6-3-21.7-1.8-5.5-7.3-13.8-13-19.9-5.5-5.8-15-12.9-21.3-15.9-6.3-2.9-17.7-6.9-25.4-8.7-11.5-2.7-27.9-3.3-89.4-3.3h-75.4z"/>
		</g>
	</g>
</svg>